<svg xmlns="http://www.w3.org/2000/svg" id="Layer_1" viewBox="0 0 341.46 122.75"><defs><style>.cls-1{stroke:#282828;stroke-miterlimit:10;stroke-width:5px;}.cls-1,.cls-2{fill:none;}.cls-3{fill:#f60049;}.cls-4{fill:#282828;}</style></defs><g><path class="cls-3" d="m171.94,56.38h-10.62v-26.7h-8.24v26.7h-10.62v-26.7h-8.24v26.7h-10.62V20.98h42.17c3.59,0,6.17,2.58,6.17,6.17v29.23Z"></path><path class="cls-3" d="m186.15,20.98h17.9l9.61,35.4h-20.63v-7.69h6.93l-4.04-17.5h-2.02l-6.32,25.18h-11.07l9.66-35.4Z"></path><path class="cls-3" d="m238.95,20.98h11.63l-5.56,13.4c-.91,2.12-2.07,3.19-3.69,3.69,1.62.35,2.88,1.16,3.74,3.24l6.12,15.07h-12.04l-4.85-12.79h-1.21l-4.85,12.79h-12.04l6.12-15.07c.86-2.07,2.12-2.88,3.74-3.24-1.62-.51-2.78-1.57-3.69-3.69l-5.56-13.4h11.63l4.55,12.9h1.42l4.55-12.9Z"></path></g><g><path class="cls-4" d="m129.51,98.84c-3.59,0-6.17-2.58-6.17-6.17v-23.06c0-3.59,2.58-6.17,6.17-6.17h22.86l-3.03,8.7h-15.37v18h8.8v-5.46h-5.16l2.43-6.98h11.78v21.14h-22.3Z"></path><path class="cls-4" d="m166.08,63.44h17.9l9.61,35.4h-20.63v-7.69h6.93l-4.04-17.5h-2.02l-6.32,25.18h-11.07l9.66-35.4Z"></path><path class="cls-4" d="m246.73,98.84h-10.62v-26.7h-8.24v26.7h-10.62v-26.7h-8.24v26.7h-10.62v-35.4h42.17c3.59,0,6.17,2.58,6.17,6.17v29.23Z"></path><path class="cls-4" d="m253.56,63.44h10.62v35.4h-10.62v-35.4Z"></path><path class="cls-4" d="m301.81,98.84h-10.62v-26.7h-9.3v26.7h-10.62v-35.4h24.37c3.59,0,6.17,2.58,6.17,6.17v29.23Z"></path><path class="cls-4" d="m314.55,98.84c-3.59,0-6.17-2.58-6.17-6.17v-23.06c0-3.59,2.58-6.17,6.17-6.17h22.86l-3.03,8.7h-15.37v18h8.8v-5.46h-5.16l2.43-6.98h11.78v21.14h-22.3Z"></path></g><path class="cls-3" d="m99.83,26.68l-13.55,7.65-9.1-5.11c-1.28-1.1-39.11,22.59-40.26,22.62-1.93.8.57,61.03-.86,61.94-.5-.49-13.94-7.18-13.17-8.22.46-.83-.89-60.99.48-61.4.14-.29,39.81-22.75,39.48-23.28-.05-.15-8.89-5.18-8.99-5.28-.74-.67-39.76,23.2-40.43,23.22-.31.19-.46.46-.46.83-.29.2.57,60.87-.33,60.53,0,0-12.27-6.96-12.27-6.96-.77-.24,0-61.35-.27-61.82C-.19,30.28,52.38.85,52.76.19c.44-.26.89-.26,1.34,0l45.73,26.48Z"></path><line class="cls-1" x1="113.62" y1="21.12" x2="113.62" y2="98.9"></line><g><path class="cls-2" d="m81.15,80.75l.77-.45c-.26.15-.51.3-.77.45Z"></path><path class="cls-4" d="m105.1,51.5c-.29-.58-7.53,3.88-12.56,6.96-3.44,2-6.89,3.99-10.45,5.87l-4.83,18.69,3.88-2.26c.26-.15.52-.3.77-.45l10.12-5.88v10.09l-31.82,18.21c-.52.29-.79.14-.79-.45v-35.99c0-.51.22-.88.65-1.13l44.33-25.74c1.62-.54.46-7.75.79-8.92.31-1.25-4.79-3.17-5.36-3.82-9.24,5.68-44.84,24.64-53.66,31.58,0,0,0,60.57,0,60.57-.31,1.49,4.62,3.13,5.34,3.89,1.34,1.3,51.8-29.83,53.02-29.84.42-.25.64-.62.64-1.1-.13-.2.14-40.11-.07-40.27Z"></path></g></svg>